<?xml version="1.0" standalone="no"?>
<!DOCTYPE svg PUBLIC "-//W3C//DTD SVG 20010904//EN"
 "http://www.w3.org/TR/2001/REC-SVG-20010904/DTD/svg10.dtd">
<svg version="1.0" xmlns="http://www.w3.org/2000/svg"
 width="148.000000pt" height="148.000000pt" viewBox="0 0 148.000000 148.000000"
 preserveAspectRatio="xMidYMid meet">
<metadata>
Created by potrace 1.11, written by Peter Selinger 2001-2013
</metadata>
<g transform="translate(0.000000,148.000000) scale(0.100000,-0.100000)"
fill="#000000" stroke="none">
<path d="M208 1248 c11 -13 73 -76 137 -140 63 -65 115 -121 115 -125 0 -5
-54 -62 -120 -128 l-120 -120 120 -120 c66 -66 120 -123 120 -127 0 -4 -61
-69 -135 -145 -135 -138 -136 -138 -104 -141 29 -3 43 8 158 122 l126 125 120
-123 120 -123 121 123 121 123 123 -124 c112 -114 125 -125 158 -125 l37 0
-143 143 -142 142 125 125 125 125 -125 125 -125 125 142 142 143 143 -37 0
c-34 0 -46 -10 -159 -125 l-123 -125 -120 123 -121 124 -120 -123 -120 -123
-125 125 c-111 110 -129 124 -159 124 l-34 0 21 -22z m982 -513 c0 -2 -100
-105 -223 -229 l-223 -226 -222 223 c-122 122 -222 226 -222 231 0 5 100 110
222 233 l223 223 222 -226 c123 -124 223 -227 223 -229z"/>
<path d="M519 793 c-1 -10 -1 -35 0 -56 1 -32 -3 -39 -25 -47 -28 -11 -24 -30
6 -30 35 0 50 28 50 91 0 46 -3 59 -15 59 -8 0 -16 -8 -16 -17z"/>
<path d="M612 803 c-19 -8 -40 -55 -36 -83 10 -67 98 -81 128 -21 33 65 -25
131 -92 104z m64 -47 c9 -38 -4 -66 -31 -66 -27 0 -40 28 -31 66 5 17 13 24
31 24 18 0 26 -7 31 -24z"/>
<path d="M730 735 c0 -60 3 -75 15 -75 14 0 20 17 16 48 -1 7 10 12 29 12 27
0 30 -3 30 -30 0 -19 5 -30 14 -30 11 0 15 17 18 65 4 75 2 85 -18 85 -9 0
-14 -11 -14 -30 0 -27 -3 -30 -31 -30 -23 0 -30 4 -28 18 3 32 -1 42 -16 42
-12 0 -15 -15 -15 -75z"/>
<path d="M880 735 c0 -60 3 -75 15 -75 11 0 15 13 15 53 l1 52 26 -52 c17 -35
33 -53 45 -53 16 0 18 9 18 75 0 60 -3 75 -15 75 -11 0 -15 -12 -15 -47 l-1
-48 -25 48 c-17 32 -31 47 -44 47 -18 0 -20 -7 -20 -75z"/>
<path d="M0 740 c0 -6 28 -10 65 -10 37 0 65 4 65 10 0 6 -28 10 -65 10 -37 0
-65 -4 -65 -10z"/>
<path d="M1350 740 c0 -6 28 -10 65 -10 37 0 65 4 65 10 0 6 -28 10 -65 10
-37 0 -65 -4 -65 -10z"/>
</g>
</svg>
